<?xml version="1.0" encoding="UTF-8"?><svg id="a" xmlns="http://www.w3.org/2000/svg" viewBox="0 0 79.9 7.79"><path d="M1.28,6.59H3.86v1.1H0V.1H1.28V6.59Z"/><path d="M5.98,7.69h-1.28V.1h1.28V7.69Z"/><path d="M11.36,.1V1.21h-2.59V3.39h2.31v1.1h-2.31v3.2h-1.28V.1h3.86Z"/><path d="M16.18,.1V1.21h-2.58V3.21h2.31v1.1h-2.31v2.28h2.58v1.1h-3.86V.1h3.86Z"/><path d="M20.83,4.92v2.77h-1.28V.1h2.21c1.43,0,2.32,.84,2.32,2.4s-.88,2.42-2.32,2.42h-.94Zm.76-1.1c.88,0,1.22-.45,1.22-1.32s-.34-1.3-1.22-1.3h-.76V3.82h.76Z"/><path d="M28.9,.1V1.21h-2.58V3.21h2.31v1.1h-2.31v2.28h2.58v1.1h-3.86V.1h3.86Z"/><path d="M33.27,7.69l-1.12-3.08h-.96v3.08h-1.28V.1h2.21c1.43,0,2.32,.76,2.32,2.27,0,1.04-.4,1.72-1.08,2.02l1.29,3.3h-1.39Zm-1.27-4.18c.77,0,1.17-.29,1.17-1.14s-.4-1.17-1.17-1.17h-.81V3.51h.81Z"/><path d="M39.46,.1V1.21h-2.59V3.39h2.31v1.1h-2.31v3.2h-1.28V.1h3.86Z"/><path d="M40.15,4.38v-.97c0-2.39,.98-3.41,2.39-3.41s2.39,1.02,2.39,3.41v.97c0,2.39-.98,3.41-2.39,3.41s-2.39-1.02-2.39-3.41Zm1.28-.97v.97c0,1.64,.36,2.31,1.11,2.31s1.11-.67,1.11-2.31v-.97c0-1.64-.36-2.31-1.11-2.31s-1.11,.67-1.11,2.31Z"/><path d="M49.43,7.69l-1.12-3.08h-.96v3.08h-1.28V.1h2.21c1.43,0,2.32,.76,2.32,2.27,0,1.04-.4,1.72-1.08,2.02l1.29,3.3h-1.39Zm-1.27-4.18c.77,0,1.17-.29,1.17-1.14s-.4-1.17-1.17-1.17h-.81V3.51h.81Z"/><path d="M54.69,4.39L56.38,.1h1.25V7.69h-1.28V3.23l-1.24,2.99h-.85l-1.25-2.96V7.69h-1.28V.1h1.24l1.71,4.29Z"/><path d="M58.35,7.69L60.48,.1h1.25l2.13,7.59h-1.35l-.4-1.57h-2.04l-.38,1.57h-1.34Zm2.01-2.67h1.47l-.73-2.99-.75,2.99Z"/><path d="M69.24,.1V7.69h-1.16l-2.22-4.5V7.69h-1.28V.1h1.13l2.25,4.57V.1h1.28Z"/><path d="M73.84,2.45c-.12-.92-.45-1.34-1.06-1.34-.75,0-1.11,.66-1.11,2.3v.97c0,1.62,.36,2.3,1.11,2.3,.63,0,.92-.42,1.06-1.34h1.21c-.22,1.71-1,2.45-2.27,2.45-1.41,0-2.39-1.02-2.39-3.41v-.97c0-2.39,.98-3.41,2.39-3.41,1.22,0,2.06,.8,2.27,2.45h-1.21Z"/><path d="M79.9,.1V1.21h-2.59V3.21h2.31v1.1h-2.31v2.28h2.59v1.1h-3.86V.1h3.86Z"/></svg>