<svg id="レイヤー_1" data-name="レイヤー 1" xmlns="http://www.w3.org/2000/svg" viewBox="0 0 57.28 16.68"><path d="M1087.39,201.58h2.76v.86h-3.71v-7.59h1Z" transform="translate(-1086.44 -194.85)"/><path d="M1091.93,202.44h-1v-7.59h1Z" transform="translate(-1086.44 -194.85)"/><path d="M1097.22,194.85v.86h-2.76v2.55h2.5v.86h-2.5v3.32h-1v-7.59Z" transform="translate(-1086.44 -194.85)"/><path d="M1101.94,194.85v.86h-2.76v2.37h2.5v.86h-2.5v2.64h2.76v.86h-3.71v-7.59Z" transform="translate(-1086.44 -194.85)"/><path d="M1087.39,208.55v2.89h-1v-7.59h2a2.35,2.35,0,0,1,0,4.7Zm1-.86c1,0,1.27-.55,1.27-1.49s-.31-1.49-1.27-1.49h-1v3Z" transform="translate(-1086.44 -194.85)"/><path d="M1095.36,203.85v.86h-2.76v2.37h2.5v.86h-2.5v2.64h2.76v.86h-3.7v-7.59Z" transform="translate(-1086.44 -194.85)"/><path d="M1099.81,211.44l-1.23-3.2h-1.17v3.2h-1v-7.59h2a2,2,0,0,1,2.23,2.2,1.91,1.91,0,0,1-1.17,2l1.33,3.37Zm-1.39-4.06c1,0,1.29-.4,1.29-1.33s-.32-1.34-1.29-1.34h-1v2.67Z" transform="translate(-1086.44 -194.85)"/><path d="M1105.53,203.85v.86h-2.76v2.55h2.49v.86h-2.49v3.32h-1v-7.59Z" transform="translate(-1086.44 -194.85)"/><path d="M1108.45,211.53c-1.36,0-2.22-1-2.22-3.47v-.83c0-2.46.86-3.47,2.22-3.47s2.22,1,2.22,3.47v.83C1110.67,210.52,1109.82,211.53,1108.45,211.53Zm-1.27-3.47c0,1.93.37,2.61,1.27,2.61s1.28-.68,1.28-2.61v-.83c0-1.93-.38-2.61-1.28-2.61s-1.27.68-1.27,2.61Z" transform="translate(-1086.44 -194.85)"/><path d="M1115.21,211.44l-1.22-3.2h-1.18v3.2h-1v-7.59h2a2,2,0,0,1,2.23,2.2,1.91,1.91,0,0,1-1.17,2l1.33,3.37Zm-1.39-4.06c1,0,1.29-.4,1.29-1.33s-.32-1.34-1.29-1.34h-1v2.67Z" transform="translate(-1086.44 -194.85)"/><path d="M1119.85,208.44l1.67-4.59h1v7.59h-1v-5.09l-1.31,3.51h-.78l-1.27-3.51v5.09h-1v-7.59h1Z" transform="translate(-1086.44 -194.85)"/><path d="M1123.31,211.44l2.12-7.59h.83l2.13,7.59h-1l-.43-1.74h-2.24l-.43,1.74Zm1.7-2.6h1.67l-.84-3.38Z" transform="translate(-1086.44 -194.85)"/><path d="M1133.39,203.85v7.59h-.88l-2.34-5.26v5.26h-1v-7.59h.85l2.37,5.31v-5.31Z" transform="translate(-1086.44 -194.85)"/><path d="M1138.11,206.21c-.22-1.18-.61-1.59-1.31-1.59-.88,0-1.28.68-1.28,2.61v.83c0,1.92.39,2.61,1.28,2.61s1.1-.48,1.31-1.59h.88c-.19,1.7-1,2.45-2.19,2.45s-2.22-1-2.22-3.47v-.83c0-2.46.86-3.47,2.22-3.47s2,.79,2.2,2.45Z" transform="translate(-1086.44 -194.85)"/><path d="M1143.72,203.85v.86H1141v2.37h2.5v.86H1141v2.64h2.76v.86H1140v-7.59Z" transform="translate(-1086.44 -194.85)"/></svg>