<?xml version="1.0" encoding="UTF-8"?><svg id="_レイヤー_1" xmlns="http://www.w3.org/2000/svg" viewBox="0 0 200 20.21804"><defs><style>.cls-1{fill:#fff;}</style></defs><path class="cls-1" d="m.08812,19.30725l1.14557-.1177c.94037-.08812,1.23495-.29395,1.23495-.49914V2.4101c0-.23541-.11833-.32353-1.4691-.44123l-.88247-.08812-.08812-.47019h8.66982l-.08812.47019-1.55848.1177c-.91016.08812-1.29286.26436-1.29286.49977v16.6032l1.96887.1177c4.08502,0,5.0254-1.52826,6.37742-4.67229l.35248-1.08766h.67601l-.85225,6.31825H0l.08812-.47019Z"/><path class="cls-1" d="m16.60572,19.30725l.55768-.02958c.85225-.05854,1.17578-.14666,1.17578-.49914v-7.99318c0-1.79263-.20645-2.08657-1.23495-2.32198l-.6458-.14666.02895-.35248,4.76104-1.29349v12.16632c0,.26436.17624.35248,1.38098.4406l.47082.02958.08812.47019h-6.67074l.08812-.47019Zm1.0864-16.75049c0-.88184.61684-1.88075,1.85179-1.88075,1.2639,0,1.88075.99891,1.88075,1.88075,0,.85225-.61684,1.88075-1.88075,1.88075-1.23495,0-1.85179-1.02849-1.85179-1.88075Z"/><path class="cls-1" d="m24.30621,19.30725l.61684-.02958c.82204-.05854,1.14557-.11707,1.14557-.47019v-10.28494l-2.32135-.05917.49977-1.38098,1.76367.02958.08812-1.08766c.26436-3.87857,3.29068-6.02431,6.1118-6.02431,1.67555,0,2.52781.79372,2.52781,1.70451,0,.85225-.70622,1.49868-1.58743,1.49868-.91142,0-1.67555-.79309-1.96887-2.11553l-.05917-.17624-.52872-.08812c-1.23369.55831-1.61639,1.93928-1.61639,4.70187v1.55722h3.70359l-.41165,1.41056h-3.29194v10.34411c0,.26436.17624.38207,1.38098.4406l1.11662.02958.08938.47019h-7.34675l.08812-.47019Z"/><path class="cls-1" d="m33.50475,13.75312c0-4.02586,2.85008-7.14092,6.7299-7.14092,3.05527,0,4.8479,1.82221,4.8479,4.2021,0,.26436-.02895.52935-.08812.8233,0,0-8.02276-.08812-8.31608-.08812-.05917.26436-.08812.85162-.08812,1.14557.02895,3.29131,1.88075,5.49558,4.46646,5.49558,1.55722,0,2.82112-.55831,3.82066-2.14511l.32353.17624c-1.23495,2.52718-3.08548,3.99627-5.67246,3.99627-3.46692,0-6.02368-2.79154-6.02368-6.46491Zm8.58044-2.733c.03021-1.99845-.61684-3.82003-2.23323-3.82003-1.49805,0-2.82112,1.64534-3.14465,3.84962,0,0,5.40809-.02958,5.37788-.02958Z"/><path class="cls-1" d="m46.52395,19.30725l1.32307-.1177c.94037-.08812,1.29286-.29395,1.29286-.49914V2.4101c0-.23541-.17624-.32353-1.49931-.44123l-1.0864-.08812-.08812-.47019h8.28586c4.93728,0,7.34675,1.73409,7.34675,4.58479,0,3.32026-3.1736,5.3483-7.5809,5.3483-.76413,0-1.4691-.05917-2.0872-.1177v7.55257c0,.23478.17624.35248,1.49931.4406l1.40993.08812.08812.47019h-8.99209l.08812-.47019Zm12.01966-12.87129c0-2.8507-1.35202-4.46709-4.34939-4.43751h-1.76367v8.5219c.58789.14729,1.05871.26499,1.99908.26499,2.43843,0,4.11398-1.67555,4.11398-4.34939Z"/><path class="cls-1" d="m63.51237,13.75312c0-4.02586,2.85008-7.14092,6.7299-7.14092,3.05527,0,4.8479,1.82221,4.8479,4.2021,0,.26436-.02895.52935-.08812.8233,0,0-8.02276-.08812-8.31608-.08812-.05919.26436-.08812.85162-.08812,1.14557.02893,3.29131,1.88075,5.49558,4.46646,5.49558,1.55722,0,2.82112-.55831,3.82066-2.14511l.32353.17624c-1.23495,2.52718-3.08548,3.99627-5.67246,3.99627-3.46692,0-6.02368-2.79154-6.02368-6.46491Zm8.58044-2.733c.03021-1.99845-.61684-3.82003-2.23323-3.82003-1.49805,0-2.82112,1.64534-3.14465,3.84962,0,0,5.40809-.02958,5.37788-.02958Z"/><path class="cls-1" d="m76.56178,19.30725l.55768-.02958c.85225-.05854,1.17578-.14666,1.17578-.49914v-7.96422c0-1.82158-.23541-2.11553-1.23495-2.35093l-.67475-.14666.02895-.35248,4.81894-1.29349-.05791,4.37897h.08812c.99828-2.82112,2.17406-4.40792,3.93774-4.40792,1.11662,0,1.99782.76413,1.99782,1.82158,0,.88184-.64706,1.73409-1.67555,1.73409-.91016,0-1.67429-.61747-1.85053-1.64597-.97059.29395-1.76367,1.49868-2.49759,3.79108v6.4945c0,.26436.23415.38207,1.40993.4406l.88121.02958.08812.47019h-7.08113l.08812-.47019Z"/><path class="cls-1" d="m88.05272,19.30725l.61684-.02958c.82204-.05854,1.14557-.11707,1.14557-.47019v-10.28494l-2.32135-.05917.49977-1.38098,1.76367.02958.08812-1.08766c.26436-3.87857,3.29068-6.02431,6.1118-6.02431,1.67555,0,2.52781.79372,2.52781,1.70451,0,.85225-.70622,1.49868-1.58743,1.49868-.91142,0-1.67555-.79309-1.96887-2.11553l-.05917-.17624-.52872-.08812c-1.23369.55831-1.61639,1.93928-1.61639,4.70187v1.55722h3.70359l-.41165,1.41056h-3.29194v10.34411c0,.26436.17624.38207,1.38098.4406l1.11662.02958.08938.47019h-7.34675l.08812-.47019Z"/><path class="cls-1" d="m97.25126,13.45918c0-3.79045,2.96841-6.8174,6.99427-6.8174,4.08502,0,6.78781,2.9382,6.78781,6.61157,0,3.8792-2.90924,6.93573-6.99427,6.93573-4.11398,0-6.78781-2.99736-6.78781-6.7299Zm10.46119.32353c0-2.58634-.52872-4.67291-1.52826-5.70141-.46956-.47019-1.11662-.88121-2.08594-.88121-2.2924,0-3.52609,2.64488-3.52609,5.7889,0,2.64488.46956,4.67229,1.49805,5.73036.49977.52935,1.17578.91142,2.11616.91142,2.17406,0,3.52609-2.61593,3.52609-5.84807Z"/><path class="cls-1" d="m112.35893,19.30725l.55768-.02958c.85225-.05854,1.17578-.14666,1.17578-.49914v-7.96422c0-1.82158-.23541-2.11553-1.23495-2.35093l-.67475-.14666.02895-.35248,4.81894-1.29349-.05791,4.37897h.08812c.99828-2.82112,2.17406-4.40792,3.93774-4.40792,1.11662,0,1.99782.76413,1.99782,1.82158,0,.88184-.64706,1.73409-1.67555,1.73409-.91016,0-1.67429-.61747-1.85053-1.64597-.97059.29395-1.76369,1.49868-2.49759,3.79108v6.4945c0,.26436.23415.38207,1.40993.4406l.88121.02958.08812.47019h-7.08113l.08812-.47019Z"/><path class="cls-1" d="m123.76175,19.30725l.55768-.02958c.85225-.05854,1.17578-.14666,1.17578-.49914v-7.96422c0-1.82158-.23541-2.11553-1.23495-2.35093l-.67475-.14666.02895-.35248,4.81894-1.29349-.05791,2.38052.05791.02958c1.20474-1.11662,2.67509-2.43906,4.58479-2.43906.96933,0,1.76241.35248,2.3503.94037.3827.35248.67601.91079.79435,1.5868l.08812.02895c1.26264-1.29286,2.79091-2.55613,4.70187-2.55613.96933,0,1.73346.29395,2.3503.91079.70497.70497.99954,1.91033.99954,3.43797v7.81694c0,.20582.02895.35311,1.38098.47019l.4406.02958.08812.47019h-6.61157l.08812-.47019.58789-.02958c.96933-.05854,1.0864-.23478,1.0864-.49914v-7.25863c0-2.11616-.79309-2.8507-2.43843-2.8507-1.05745,0-2.2043.52872-2.55676,1.17578.02895.05854-.02895.67538-.02895.76413v8.22796c0,.20582.05791.32353,1.35076.4406l.47082.02958.08812.47019h-6.55366l.08812-.47019.55894-.02958c.94037-.05854,1.08766-.23478,1.08766-.49914v-7.25863c0-2.11616-.8233-2.8507-2.43968-2.8507-1.05745,0-1.9097.49977-2.61467.99954v9.16833c0,.26436.17624.35248,1.32181.4406l.55894.02958.05791.47019h-6.64052l.08812-.47019Z"/><path class="cls-1" d="m154.23766,17.80856l-.05791-.02958c-1.11662,1.23432-2.32135,2.32198-3.84962,2.32198-1.73472,0-3.1736-1.32244-3.1736-2.99799,0-2.08594,1.73346-3.52609,7.17051-4.81894l.02895-.76413c.05917-2.733-1.08766-3.90878-2.90924-3.90878-1.02849,0-2.02803.49977-2.02803.76413,0,.20582.79309.82267.79309,1.64597,0,.73455-.6458,1.41056-1.58617,1.41056-.91142,0-1.58743-.55831-1.58743-1.32244,0-1.70451,3.64442-3.46755,6.14201-3.46755,3.08548,0,4.29022,1.17515,4.11398,4.96623l-.26436,5.37788c-.05917.99891.32353,1.4691.94037,1.4691.47082,0,.88121-.38207,1.29286-.76413l.26436.26436c-.67601.91142-1.79263,2.17469-3.08548,2.17469-1.2639,0-2.05699-.79309-2.20428-2.32135Zm-.08812-.55831l.1775-4.46709c-3.49713.8233-4.32043,1.99845-4.32043,3.40901,0,1.2639.91142,2.11616,1.9097,2.11616.8233,0,1.49931-.32353,2.23323-1.05808Z"/><path class="cls-1" d="m160.00076,19.30725l.55768-.02958c.85225-.05854,1.17578-.14666,1.17578-.49914v-7.96422c0-1.82158-.23541-2.11553-1.23495-2.35093l-.67601-.14666.03021-.35248,4.81894-1.29349-.05791,2.4101h.05791c1.32307-1.08766,3.02758-2.43906,4.93728-2.43906.94037,0,1.76367.29395,2.3503.91079.70622.70497.97059,1.85116.97059,3.1736v8.0813c0,.20582.08812.35311,1.44014.47019l.4406.02958.08812.47019h-6.61157l.08812-.47019.55768-.02958c.99954-.05854,1.08766-.23478,1.08766-.49914v-7.25863c0-2.11616-.85225-2.8507-2.52781-2.8507-1.20474,0-2.17406.49977-2.87903,1.05808v9.10979c0,.26436.17624.35248,1.32181.4406l.55894.02958.05791.47019h-6.64052l.08812-.47019Z"/><path class="cls-1" d="m175.69505,13.78271c0-4.02586,2.88029-7.14092,6.87593-7.14092,2.55676,0,4.49667,1.1462,4.49667,2.82112,0,.99891-.79309,1.64534-1.64534,1.64534-1.02849,0-1.76367-.91079-1.6466-1.93928,0-.64643.44186-1.02849.44186-1.20474-.08812-.35311-.88247-.76413-1.6466-.76413-2.1149,0-3.7615,2.11553-3.7615,5.40683,0,3.40901,1.85179,5.58371,4.43751,5.58371,1.52826,0,2.70405-.55831,3.70359-2.14511l.32227.17624c-1.23369,2.52718-3.02632,3.99627-5.58308,3.99627-3.43797,0-5.99473-2.76195-5.99473-6.43533Z"/><path class="cls-1" d="m188.30387,13.75312c0-4.02586,2.85008-7.14092,6.7299-7.14092,3.05527,0,4.8479,1.82221,4.8479,4.2021,0,.26436-.02895.52935-.08812.8233,0,0-8.02276-.08812-8.31608-.08812-.05917.26436-.08812.85162-.08812,1.14557.02895,3.29131,1.88075,5.49558,4.46646,5.49558,1.55722,0,2.82112-.55831,3.82066-2.14511l.32353.17624c-1.23495,2.52718-3.08548,3.99627-5.67246,3.99627-3.46692,0-6.02368-2.79154-6.02368-6.46491Zm8.58044-2.733c.03021-1.99845-.61684-3.82003-2.23323-3.82003-1.49805,0-2.82112,1.64534-3.14467,3.84962,0,0,5.40812-.02958,5.3779-.02958Z"/></svg>